<svg version="1.2" xmlns="http://www.w3.org/2000/svg" viewBox="0 0 3854 786" width="3854" height="786">
	<title>x</title>
	<style>
		.s0 { fill: #ffffff } 
	</style>
	<g id="x">
		<g id="&lt;Group&gt;">
			<path id="&lt;Path&gt;" class="s0" d="m271 670.2c-18-31.3-35.7-62.2-53.4-93-63.6-110.8-127.1-221.5-191.1-332-5.7-9.8-5.8-16.7 0.1-26.4 19.9-33 38.8-66.6 59.5-102.3 73 127.1 144.7 252 217.1 377.8 3.2-2.1 5.4-3.1 7.2-4.7 71.8-66.2 137.1-137.9 188.8-221.3 32.3-52.1 50.7-99.3 58.2-148.1 3.1 4.2 5.5 7 7.4 10.2 19.7 33.9 38.8 68.3 59.3 101.8 6.8 11.1 6.6 20.2 1.6 31.6-30.2 69-74 129-122.7 185.7-67.3 78.3-142.5 148.5-222.3 213.9-2.7 2.3-5.8 4.2-9.7 6.8z"/>
			<path id="&lt;Path&gt;" class="s0" d="m20.7 273.1c41.5 71.9 81.8 141.6 121.7 211.5 2.6 4.6 3.2 10.9 3.2 16.4 0.2 47 0.2 94 0 141.1 0 20.6-7.5 28-27.9 28.1-24.3 0.2-48.6 0.3-72.9 0-16.8-0.2-25.7-9-25.7-26-0.2-122-0.1-244-0.1-366 0-0.9 0.6-1.8 1.7-5.1z"/>
			<path id="&lt;Path&gt;" class="s0" d="m630.5 310.6c0 6.2 0 10.7 0 15.1-0.1 104-0.1 207.9-0.2 311.8 0 26.8-6.1 32.7-32.7 32.8-22.3 0-44.5 0.1-66.7-0.1-18.8-0.2-27.2-8.6-27.2-27.7-0.2-47-0.3-94.1 0.1-141.1 0.1-5.7 1.9-12.6 5.5-16.8 44.4-52.7 83.9-108.8 116.3-169.7 0.6-1.2 2.1-1.9 4.9-4.3z"/>
		</g>
		<g id="&lt;Group&gt;">
			<path id="&lt;Path&gt;" class="s0" d="m1059.9 373.9c-16.4 27.7-32.7 55.3-49 83-28.5 48.3-60.5 47.8-89.4-1.5-16.3-27.9-32.8-55.7-57.9-82.2 0 66.5 0 132.9 0 202.6-23.8 0-41.8 0-62.6 0 0-119.3 0-238.1 0-357.1 38.5-14.4 61.1-0.6 79 33.9 25.4 49.1 54.9 95.9 86.9 151.1 33.2-57.6 61.8-109.5 93.2-159.7 8.1-12.9 23.8-25.2 38.4-29.2 27.2-7.5 41.5 3.1 40.8 35.9-1.9 97.8-1.4 195.7-0.2 293.6 0.4 26.4-7.8 35.5-34.7 35.7-28.3 0.2-34.7-12.2-34.3-36.9 1-55.5 0.3-111.1 0.3-166.6q-5.3-1.3-10.5-2.6z"/>
			<path id="&lt;Compound Path&gt;" fill-rule="evenodd" class="s0" d="m2923.9 578.9c-97.7 0.3-97.7 0.3-97.7-98.1 0-77.4 0.8-154.9-0.4-232.3-0.4-26.4 8.7-36.4 35.5-35.3 40.6 1.8 81.5-0.3 122.2 0.9 84.7 2.6 137.1 53.3 141.2 137.1 1.6 32.5 1.9 65.3-0.4 97.7-5.8 77.9-57.3 126.7-135.2 129.8-21.7 0.9-43.4 0.2-65.2 0.2zm-26.1-302.7c0 83.4 0 160.3 0 240.9 52.4-4.3 111.7 20.1 144.5-34.2 31.6-52.3 30.8-115.2 2-168.4-31.7-58.8-92.9-33.8-146.5-38.3z"/>
			<path id="&lt;Path&gt;" class="s0" d="m3542.8 476.5c27.7-4.5 52.3-7.9 74.9 20.7 26.4 33.4 101.6 35.8 135.9 9.7 27.3-20.8 23.8-49.2-10.5-61.6-34.3-12.4-70.7-19.1-105.9-29.2-66.7-19.2-90-47.2-87.7-104.1 2.1-50.7 37.5-87.1 96.9-99.1 59.5-12 115-3.7 157.7 41.9 12.1 13 12 37.5 17.5 56.8-22-4.2-49.6-1.6-64.9-14-32-26-64.8-36.5-101.4-21.4-16 6.6-33.9 24.8-36.9 40.5-2 10.1 19.3 31 34.1 36.7 35.3 13.5 73.4 19.3 109.5 31 54.7 17.8 73.2 41.6 73.6 88.9 0.4 50.8-21.2 81.1-73.5 99.3-60.8 21.2-122 20.1-176.1-15.8-23.2-15.4-37.3-44.6-55.5-67.5q6.1-6.4 12.3-12.8z"/>
			<path id="&lt;Compound Path&gt;" fill-rule="evenodd" class="s0" d="m3510.8 573.4c-42.3 14.1-70.4 6.9-79.8-37-5.3-24.9-21.3-31.1-44.8-30.1-33.9 1.5-68 1.4-101.9 0.1-23.2-1-40.2 4.7-45.3 29.6-8.9 44.5-37.3 51-80.4 37.5 3.4-12.3 5.7-25 10.2-36.9 37.1-96.1 75.8-191.7 111.3-288.4 10.5-28.6 26.3-35.7 54.4-35.3 27 0.3 44.3 4.7 55.1 34.2 35.7 98.1 74.9 194.9 112.3 292.3 4.2 10.8 6 22.6 8.9 34zm-176.3-285.1c-22 57.8-39.9 104.6-58.6 153.7 43.6 0 78.9 0 119 0-20.2-51.4-38.2-97.3-60.4-153.7z"/>
			<path id="&lt;Path&gt;" class="s0" d="m1223.2 215.9c23.2 0 40.4 0 62 0 1.4 16 3.7 31.7 3.9 47.5 1.2 63.9-0.8 128 3.3 191.8 2.9 46.8 36.4 70.6 84.5 68.3 46.6-2.2 74.9-27.2 76.4-73.2 2.1-66.7 1.5-133.4 0.9-200.1-0.2-24.4 5.3-37.7 34-37.3 26.9 0.3 35.4 9.4 34.8 35.9-1.5 65.3 0.6 130.7-0.8 196-2 91-59.6 142.8-154 140.9-93.1-1.9-144.3-52.7-144.9-144.7-0.5-73.3-0.1-146.7-0.1-225.1z"/>
			<path id="&lt;Path&gt;" class="s0" d="m2613.2 212.7c16.9 28.4 31.8 49.5 42.3 72.7 4.7 10.5 4.3 26.5-0.3 37.3-36 85.3-147.2 208.6-233 259.3-56.8-98.5-116.8-195.5-167.5-297-9.5-19 17.7-56.4 28.1-85.3q5.8 0.4 11.7 0.7c49.5 85.1 99 170.1 152.1 261.3 78.6-68.4 132.4-148.4 166.6-249z"/>
			<path id="&lt;Path&gt;" class="s0" d="m1938.1 276c-31.8 0-57.5-0.7-83.2 0.2-22.7 0.7-27-11.8-26.8-31 0.1-18.3 1.9-31.9 25.7-31.7 84.1 0.7 168.3 0.3 251.3 0.3 17.1 55.5 12.4 62.1-41 62.2-17.6 0.1-35.1 0-58.4 0 0 101.3 0 199.7 0 296.7-64 13.3-67.5 10.8-67.6-45.5-0.1-81.5 0-163 0-251.2z"/>
			<path id="&lt;Path&gt;" class="s0" d="m1609.8 216c20 0 37.2 0 61 0 0 98.2 0 196.5 0 301.4 54.6 0 102.9 0.4 151.2-0.2 22.3-0.3 40.1 0.4 40.6 30.8 0.4 30.1-16.4 31.7-39.2 31.4-70.3-0.7-140.6-0.2-213.6-0.2 0-122.5 0-240.1 0-363.2z"/>
			<path id="&lt;Path&gt;" class="s0" d="m2171.7 396.4c0-50.2-0.7-100.5 0.6-150.7 0.2-10.3 6.1-27.6 12.6-29.3 14.9-3.9 33.2-3.6 47.1 2.3 5.5 2.3 3.2 23.7 4.1 36.4 1.6 21.9 3.9 43.7 4 65.6 0.5 74.7-0.6 149.4 0.7 224 0.4 27-9.9 34.9-36 35.2-28.3 0.4-34.3-11.8-33.5-36.8 1.4-48.9 0.4-97.8 0.4-146.7z"/>
			<path id="&lt;Path&gt;" class="s0" d="m2671.6 218.7c67.7-10.4 68.7-9.7 68.7 47.2 0 92.5-0.7 184.9 0.4 277.4 0.3 25.2-5.7 36.7-33.7 36.7-27.3-0.1-36.2-10.1-35.1-36 3.1-78.5 6.2-157 7.2-235.6 0.4-30-4.9-60.1-7.5-89.7z"/>
		</g>
	</g>
</svg>