<svg version="1.2" xmlns="http://www.w3.org/2000/svg" viewBox="0 0 4168 643" width="4168" height="643">
	<title>multividas-blogging-platform-multividas-social-media-blog-multividas-posts-threads-multividas-comments-discussions-multividas-short-texts-multividas-social-blogging</title>
	<defs>
		<linearGradient id="g1" x2="1" gradientUnits="userSpaceOnUse" gradientTransform="matrix(0,-124.37,39.698,0,-502.289,516.138)">
			<stop offset=".004" stop-color="#0f4b81"/>
			<stop offset="1" stop-color="#08416b"/>
		</linearGradient>
		<linearGradient id="g2" x2="1" gradientUnits="userSpaceOnUse" gradientTransform="matrix(0,-124.516,43.943,0,83.493,521.719)">
			<stop offset=".004" stop-color="#0f4b81"/>
			<stop offset="1" stop-color="#08416b"/>
		</linearGradient>
	</defs>
	<style>
		.s0 { fill: #0f4b81 } 
		.s1 { fill: url(#g1) } 
		.s2 { fill: url(#g2) } 
	</style>
	<filter id="f0">
		<feFlood flood-color="#ffffff" flood-opacity="1" />
		<feBlend mode="normal" in2="SourceGraphic"/>
		<feComposite in2="SourceAlpha" operator="in" />
	</filter>
	<g id="x" filter="url(#f0)">
		<g id="&lt;Group&gt;">
			<path id="&lt;Path&gt;" class="s0" d="m293.1 597.9c-17.6-30.7-35-61-52.4-91.3-62.4-108.6-124.7-217.2-187.4-325.6-5.6-9.6-5.7-16.4 0-25.9 19.6-32.3 38.1-65.3 58.4-100.3 71.6 124.7 142 247.1 212.9 370.6 3.2-2.1 5.4-3.1 7.1-4.7 70.5-64.8 134.5-135.2 185.2-217 31.7-51.1 49.8-97.4 57.1-145.2 3 4.1 5.4 6.8 7.2 9.9 19.4 33.3 38.1 67 58.2 99.9 6.6 10.9 6.5 19.8 1.6 31-29.7 67.7-72.6 126.5-120.4 182.1-66 76.9-139.7 145.7-218 209.9-2.7 2.2-5.7 4-9.5 6.6z"/>
			<path id="&lt;Path&gt;" class="s1" d="m47.6 208.4c40.7 70.5 80.2 138.9 119.4 207.5 2.5 4.5 3.1 10.6 3.1 16 0.2 46.1 0.2 92.3 0 138.4-0.1 20.2-7.4 27.5-27.4 27.6-23.8 0.1-47.6 0.2-71.4 0-16.6-0.2-25.3-8.8-25.3-25.5-0.2-119.7-0.1-239.4-0.1-359 0-0.9 0.6-1.7 1.7-5z"/>
			<path id="&lt;Path&gt;" class="s2" d="m645.6 245.2c0 6.1 0 10.5 0 14.8 0 102 0 203.9-0.1 305.8-0.1 26.3-6 32.1-32.1 32.1-21.8 0.1-43.6 0.2-65.5 0-18.3-0.2-26.6-8.5-26.6-27.1-0.2-46.2-0.3-92.3 0.1-138.5 0.1-5.6 1.9-12.3 5.4-16.5 43.6-51.7 82.3-106.7 114.1-166.4 0.6-1.2 2-1.9 4.7-4.2z"/>
		</g>
		<g id="&lt;Group&gt;">
			<path id="&lt;Path&gt;" class="s0" d="m1080.7 365.1c-17.9 30.3-35.9 60.6-53.7 90.9-31.2 53-66.3 52.4-97.9-1.7-17.9-30.5-35.9-61-63.4-89.9 0 72.7 0 145.5 0 221.9-26.1 0-45.8 0-68.7 0 0-130.7 0-260.9 0-391.2 42.3-15.8 67.1-0.7 86.6 37.1 27.8 53.8 60.2 105.1 95.2 165.5 36.4-63 67.7-119.9 102.1-174.9 8.9-14.2 26.1-27.6 42.1-32 29.8-8.2 45.5 3.4 44.7 39.3-2.1 107.2-1.6 214.5-0.2 321.7 0.4 28.9-8.6 38.8-38.1 39.1-31 0.2-38-13.3-37.5-40.5 1-60.8 0.3-121.6 0.3-182.4q-5.8-1.4-11.5-2.9z"/>
			<path id="&lt;Compound Path&gt;" fill-rule="evenodd" class="s0" d="m3122.8 589.7c-107.1 0.3-107.1 0.3-107.1-107.5 0-84.8 0.9-169.6-0.4-254.4-0.4-29 9.5-39.9 38.8-38.7 44.6 1.9 89.3-0.4 133.9 0.9 92.8 2.8 150.2 58.4 154.7 150.2 1.7 35.6 2.1 71.5-0.5 107.1-6.2 85.3-62.7 138.8-148 142.2-23.8 1-47.6 0.2-71.4 0.2zm-28.7-331.7c0 91.4 0 175.6 0 264 57.4-4.7 122.4 22 158.3-37.5 34.7-57.3 33.8-126.2 2.3-184.5-34.8-64.4-101.8-37-160.6-42z"/>
			<path id="&lt;Path&gt;" class="s0" d="m3800.7 477.6c30.3-5 57.3-8.8 82.1 22.6 28.9 36.5 111.3 39.2 148.9 10.6 29.9-22.8 26.1-53.8-11.6-67.5-37.5-13.6-77.3-20.9-115.9-32-73.1-21-98.6-51.7-96.1-114 2.3-55.6 41.1-95.4 106.1-108.5 65.2-13.2 126-4.1 172.8 45.8 13.3 14.3 13.2 41.2 19.2 62.2-24.1-4.5-54.3-1.6-71.1-15.3-35.1-28.4-71-40-111.1-23.4-17.5 7.2-37.2 27.2-40.5 44.3-2.1 11.1 21.2 34 37.4 40.3 38.6 14.8 80.4 21.1 119.9 33.9 60 19.5 80.3 45.6 80.7 97.4 0.5 55.7-23.2 88.9-80.5 108.8-66.6 23.2-133.6 22-192.9-17.3-25.5-16.9-40.9-48.9-60.8-74q6.7-7 13.4-13.9z"/>
			<path id="&lt;Compound Path&gt;" fill-rule="evenodd" class="s0" d="m3765.7 583.7c-46.4 15.4-77.1 7.5-87.4-40.6-5.9-27.2-23.3-34.1-49.1-32.9-37.2 1.6-74.5 1.5-111.6 0-25.5-1-44.1 5.2-49.6 32.5-9.9 48.7-40.9 55.8-88.2 41.1 3.7-13.5 6.3-27.4 11.3-40.4 40.6-105.4 83-210 121.8-316 11.5-31.3 28.9-39.2 59.6-38.7 29.7 0.4 48.6 5.2 60.4 37.5 39.1 107.4 82 213.5 123.1 320.2 4.5 11.9 6.5 24.7 9.7 37.3zm-193.1-312.4c-24.2 63.3-43.7 114.6-64.2 168.4 47.7 0 86.4 0 130.3 0-22.1-56.3-41.9-106.6-66.1-168.4z"/>
			<path id="&lt;Path&gt;" class="s0" d="m1259.6 192c25.4 0 44.3 0 68 0 1.5 17.6 3.9 34.8 4.2 52 1.3 70.1-0.9 140.3 3.6 210.1 3.2 51.3 39.9 77.4 92.6 74.9 51-2.5 82-29.8 83.7-80.3 2.3-73 1.6-146.1 0.9-219.1-0.2-26.8 5.8-41.3 37.3-40.9 29.4 0.3 38.8 10.3 38.2 39.3-1.7 71.6 0.6 143.2-0.9 214.7-2.2 99.7-65.3 156.5-168.7 154.5-102-2.1-158.2-57.8-158.8-158.6-0.5-80.3-0.1-160.6-0.1-246.6z"/>
			<path id="&lt;Path&gt;" class="s0" d="m2782.3 188.5c18.6 31.1 34.9 54.3 46.4 79.7 5.1 11.4 4.7 29-0.3 40.8-39.5 93.5-161.3 228.6-255.3 284.1-62.2-108-127.9-214.2-183.5-325.4-10.4-20.8 19.5-61.7 30.8-93.4q6.4 0.4 12.9 0.8c54.2 93.2 108.4 186.3 166.5 286.2 86.1-75 145.1-162.6 182.5-272.8z"/>
			<path id="&lt;Path&gt;" class="s0" d="m2042.8 257.8c-34.9 0-63-0.7-91.1 0.2-24.9 0.9-29.7-12.9-29.5-33.9 0.2-20 2.1-34.9 28.2-34.7 92.2 0.7 184.4 0.3 275.3 0.3 18.8 60.9 13.6 68.1-44.9 68.2-19.2 0-38.4 0-63.9 0 0 110.9 0 218.7 0 325-70.2 14.6-74 11.9-74.1-49.9-0.1-89.2 0-178.5 0-275.2z"/>
			<path id="&lt;Path&gt;" class="s0" d="m1683.1 192.2c21.9 0 40.8 0 66.9 0 0 107.5 0 215.2 0 330.1 59.8 0 112.7 0.5 165.6-0.2 24.4-0.4 43.9 0.4 44.4 33.7 0.5 33-17.9 34.7-42.9 34.5-77-0.8-154-0.3-234-0.3 0-134.2 0-263.1 0-397.8z"/>
			<path id="&lt;Path&gt;" class="s0" d="m2298.7 389.8c0-55.1-0.8-110.1 0.6-165.1 0.3-11.3 6.7-30.2 13.9-32.1 16.3-4.3 36.3-3.9 51.5 2.5 6.1 2.5 3.6 25.9 4.6 39.9 1.7 23.9 4.2 47.9 4.4 71.8 0.5 81.8-0.7 163.7 0.6 245.5 0.5 29.5-10.8 38.1-39.4 38.5-30.9 0.4-37.5-12.9-36.7-40.4 1.6-53.5 0.5-107.1 0.5-160.6z"/>
			<path id="&lt;Path&gt;" class="s0" d="m2846.3 195.1c74.2-11.4 75.3-10.6 75.3 51.7 0 101.3-0.7 202.6 0.5 303.9 0.3 27.6-6.3 40.2-37 40.2-29.8-0.1-39.6-11.1-38.5-39.4 3.5-86 6.9-172.1 8-258.1 0.4-32.9-5.4-65.9-8.3-98.3z"/>
		</g>
	</g>
</svg>